<svg width="152" height="55" viewBox="0 0 152 55" fill="none" xmlns="http://www.w3.org/2000/svg">
<path d="M4.52557 23H0.571023L6.59659 5.54545H11.3523L17.3693 23H13.4148L9.04261 9.53409H8.90625L4.52557 23ZM4.27841 16.1392H13.6193V19.0199H4.27841V16.1392Z" fill="#B1FF00"/>
<path d="M19.402 23V9.90909H22.9219V12.1932H23.0582C23.2969 11.3807 23.6974 10.767 24.2599 10.3523C24.8224 9.93182 25.4702 9.72159 26.2031 9.72159C26.3849 9.72159 26.581 9.73295 26.7912 9.75568C27.0014 9.77841 27.1861 9.80966 27.3452 9.84943V13.071C27.1747 13.0199 26.9389 12.9744 26.6378 12.9347C26.3366 12.8949 26.0611 12.875 25.8111 12.875C25.277 12.875 24.7997 12.9915 24.3793 13.2244C23.9645 13.4517 23.6349 13.7699 23.3906 14.179C23.152 14.5881 23.0327 15.0597 23.0327 15.5938V23H19.402ZM34.5788 23.2557C33.2322 23.2557 32.0732 22.983 31.1016 22.4375C30.1357 21.8864 29.3913 21.108 28.8686 20.1023C28.3459 19.0909 28.0845 17.8949 28.0845 16.5142C28.0845 15.1676 28.3459 13.9858 28.8686 12.9688C29.3913 11.9517 30.1271 11.1591 31.076 10.5909C32.0305 10.0227 33.1499 9.73864 34.4339 9.73864C35.2976 9.73864 36.1016 9.87784 36.8459 10.1562C37.5959 10.429 38.2493 10.8409 38.8061 11.392C39.3686 11.9432 39.8061 12.6364 40.1186 13.4716C40.4311 14.3011 40.5874 15.2727 40.5874 16.3864V17.3835H29.5334V15.1335H37.1697C37.1697 14.6108 37.0561 14.1477 36.8288 13.7443C36.6016 13.3409 36.2862 13.0256 35.8828 12.7983C35.4851 12.5653 35.022 12.4489 34.4936 12.4489C33.9425 12.4489 33.4538 12.5767 33.0277 12.8324C32.6072 13.0824 32.2777 13.4205 32.0391 13.8466C31.8004 14.267 31.6783 14.7358 31.6726 15.2528V17.392C31.6726 18.0398 31.7919 18.5994 32.0305 19.071C32.2749 19.5426 32.6186 19.9062 33.0618 20.1619C33.505 20.4176 34.0305 20.5455 34.6385 20.5455C35.0419 20.5455 35.4112 20.4886 35.7464 20.375C36.0817 20.2614 36.3686 20.0909 36.6072 19.8636C36.8459 19.6364 37.0277 19.358 37.1527 19.0284L40.5107 19.25C40.3402 20.0568 39.9908 20.7614 39.4624 21.3636C38.9396 21.9602 38.2635 22.4261 37.4339 22.7614C36.6101 23.0909 35.6584 23.2557 34.5788 23.2557ZM46.5874 15.4318V23H42.9567V9.90909H46.4169V12.2188H46.5703C46.8601 11.4574 47.3459 10.8551 48.0277 10.4119C48.7095 9.96307 49.5362 9.73864 50.5078 9.73864C51.4169 9.73864 52.2095 9.9375 52.8857 10.3352C53.5618 10.733 54.0874 11.3011 54.4624 12.0398C54.8374 12.7727 55.0249 13.6477 55.0249 14.6648V23H51.3942V15.3125C51.3999 14.5114 51.1953 13.8864 50.7805 13.4375C50.3658 12.983 49.7947 12.7557 49.0675 12.7557C48.5788 12.7557 48.147 12.8608 47.772 13.071C47.4027 13.2812 47.1129 13.5881 46.9027 13.9915C46.6982 14.3892 46.593 14.8693 46.5874 15.4318ZM61.6193 23.2472C60.7841 23.2472 60.0398 23.1023 59.3864 22.8125C58.733 22.517 58.2159 22.0824 57.8352 21.5085C57.4602 20.929 57.2727 20.2074 57.2727 19.3438C57.2727 18.6165 57.4063 18.0057 57.6733 17.5114C57.9403 17.017 58.304 16.6193 58.7642 16.3182C59.2244 16.017 59.7472 15.7898 60.3324 15.6364C60.9233 15.483 61.5426 15.375 62.1903 15.3125C62.9517 15.233 63.5653 15.1591 64.0312 15.0909C64.4972 15.017 64.8352 14.9091 65.0455 14.767C65.2557 14.625 65.3608 14.4148 65.3608 14.1364V14.0852C65.3608 13.5455 65.1903 13.1278 64.8494 12.8324C64.5142 12.5369 64.0369 12.3892 63.4176 12.3892C62.7642 12.3892 62.2443 12.5341 61.858 12.8239C61.4716 13.108 61.2159 13.4659 61.0909 13.8977L57.733 13.625C57.9034 12.8295 58.2386 12.142 58.7386 11.5625C59.2386 10.9773 59.8835 10.5284 60.6733 10.2159C61.4688 9.89773 62.3892 9.73864 63.4347 9.73864C64.1619 9.73864 64.858 9.82386 65.5227 9.99432C66.1932 10.1648 66.7869 10.429 67.304 10.7869C67.8267 11.1449 68.2386 11.6051 68.5398 12.1676C68.8409 12.7244 68.9915 13.392 68.9915 14.1705V23H65.5483V21.1847H65.446C65.2358 21.5938 64.9545 21.9545 64.6023 22.267C64.25 22.5739 63.8267 22.8153 63.3324 22.9915C62.8381 23.1619 62.267 23.2472 61.6193 23.2472ZM62.6591 20.7415C63.1932 20.7415 63.6648 20.6364 64.0739 20.4261C64.483 20.2102 64.804 19.9205 65.0369 19.5568C65.2699 19.1932 65.3864 18.7812 65.3864 18.321V16.9318C65.2727 17.0057 65.1165 17.0739 64.9176 17.1364C64.7244 17.1932 64.5057 17.2472 64.2614 17.2983C64.017 17.3437 63.7727 17.3864 63.5284 17.4261C63.2841 17.4602 63.0625 17.4915 62.8636 17.5199C62.4375 17.5824 62.0653 17.6818 61.7472 17.8182C61.429 17.9545 61.1818 18.1392 61.0057 18.3722C60.8295 18.5994 60.7415 18.8835 60.7415 19.2244C60.7415 19.7188 60.9205 20.0966 61.2784 20.358C61.642 20.6136 62.1023 20.7415 62.6591 20.7415Z" fill="#EFEFEF"/>
<path d="M68.9176 42.6562H65.1847C65.1165 42.1733 64.9773 41.7443 64.767 41.3693C64.5568 40.9886 64.2869 40.6648 63.9574 40.3977C63.6278 40.1307 63.2472 39.9261 62.8153 39.7841C62.3892 39.642 61.9261 39.571 61.4261 39.571C60.5227 39.571 59.7358 39.7955 59.0653 40.2443C58.3949 40.6875 57.875 41.3352 57.5057 42.1875C57.1364 43.0341 56.9517 44.0625 56.9517 45.2727C56.9517 46.517 57.1364 47.5625 57.5057 48.4091C57.8807 49.2557 58.4034 49.8949 59.0739 50.3267C59.7443 50.7585 60.5199 50.9744 61.4006 50.9744C61.8949 50.9744 62.3523 50.9091 62.7727 50.7784C63.1989 50.6477 63.5767 50.4574 63.9062 50.2074C64.2358 49.9517 64.5085 49.642 64.7244 49.2784C64.946 48.9148 65.0994 48.5 65.1847 48.0341L68.9176 48.0511C68.821 48.8523 68.5795 49.625 68.1932 50.3693C67.8125 51.108 67.2983 51.7699 66.6506 52.3551C66.0085 52.9347 65.2415 53.3949 64.3494 53.7358C63.4631 54.071 62.4602 54.2386 61.3409 54.2386C59.7841 54.2386 58.392 53.8864 57.1648 53.1818C55.9432 52.4773 54.9773 51.4574 54.267 50.1222C53.5625 48.7869 53.2102 47.1705 53.2102 45.2727C53.2102 43.3693 53.5682 41.75 54.2841 40.4148C55 39.0795 55.9716 38.0625 57.1989 37.3636C58.4261 36.6591 59.8068 36.3068 61.3409 36.3068C62.3523 36.3068 63.2898 36.4489 64.1534 36.733C65.0227 37.017 65.7926 37.4318 66.4631 37.9773C67.1335 38.517 67.679 39.179 68.0994 39.9631C68.5256 40.7472 68.7983 41.6449 68.9176 42.6562ZM77.4105 54.2557C76.0866 54.2557 74.9418 53.9744 73.9759 53.4119C73.0156 52.8437 72.2741 52.054 71.7514 51.0426C71.2287 50.0256 70.9673 48.8466 70.9673 47.5057C70.9673 46.1534 71.2287 44.9716 71.7514 43.9602C72.2741 42.9432 73.0156 42.1534 73.9759 41.5909C74.9418 41.0227 76.0866 40.7386 77.4105 40.7386C78.7344 40.7386 79.8764 41.0227 80.8366 41.5909C81.8026 42.1534 82.5469 42.9432 83.0696 43.9602C83.5923 44.9716 83.8537 46.1534 83.8537 47.5057C83.8537 48.8466 83.5923 50.0256 83.0696 51.0426C82.5469 52.054 81.8026 52.8437 80.8366 53.4119C79.8764 53.9744 78.7344 54.2557 77.4105 54.2557ZM77.4276 51.4432C78.0298 51.4432 78.5327 51.2727 78.9361 50.9318C79.3395 50.5852 79.6435 50.1136 79.848 49.517C80.0582 48.9205 80.1634 48.2415 80.1634 47.4801C80.1634 46.7188 80.0582 46.0398 79.848 45.4432C79.6435 44.8466 79.3395 44.375 78.9361 44.0284C78.5327 43.6818 78.0298 43.5085 77.4276 43.5085C76.8196 43.5085 76.3082 43.6818 75.8935 44.0284C75.4844 44.375 75.1747 44.8466 74.9645 45.4432C74.7599 46.0398 74.6577 46.7188 74.6577 47.4801C74.6577 48.2415 74.7599 48.9205 74.9645 49.517C75.1747 50.1136 75.4844 50.5852 75.8935 50.9318C76.3082 51.2727 76.8196 51.4432 77.4276 51.4432ZM89.8452 46.4318V54H86.2145V40.9091H89.6747V43.2188H89.8281C90.1179 42.4574 90.6037 41.8551 91.2855 41.4119C91.9673 40.9631 92.794 40.7386 93.7656 40.7386C94.6747 40.7386 95.4673 40.9375 96.1435 41.3352C96.8196 41.733 97.3452 42.3011 97.7202 43.0398C98.0952 43.7727 98.2827 44.6477 98.2827 45.6648V54H94.652V46.3125C94.6577 45.5114 94.4531 44.8864 94.0384 44.4375C93.6236 43.983 93.0526 43.7557 92.3253 43.7557C91.8366 43.7557 91.4048 43.8608 91.0298 44.071C90.6605 44.2812 90.3707 44.5881 90.1605 44.9915C89.956 45.3892 89.8509 45.8693 89.8452 46.4318ZM104.775 46.4318V54H101.144V40.9091H104.604V43.2188H104.758C105.048 42.4574 105.533 41.8551 106.215 41.4119C106.897 40.9631 107.724 40.7386 108.695 40.7386C109.604 40.7386 110.397 40.9375 111.073 41.3352C111.749 41.733 112.275 42.3011 112.65 43.0398C113.025 43.7727 113.212 44.6477 113.212 45.6648V54H109.582V46.3125C109.587 45.5114 109.383 44.8864 108.968 44.4375C108.553 43.983 107.982 43.7557 107.255 43.7557C106.766 43.7557 106.335 43.8608 105.96 44.071C105.59 44.2812 105.3 44.5881 105.09 44.9915C104.886 45.3892 104.781 45.8693 104.775 46.4318ZM122.04 54.2557C120.693 54.2557 119.534 53.983 118.562 53.4375C117.597 52.8864 116.852 52.108 116.33 51.1023C115.807 50.0909 115.545 48.8949 115.545 47.5142C115.545 46.1676 115.807 44.9858 116.33 43.9688C116.852 42.9517 117.588 42.1591 118.537 41.5909C119.491 41.0227 120.611 40.7386 121.895 40.7386C122.759 40.7386 123.563 40.8778 124.307 41.1562C125.057 41.429 125.71 41.8409 126.267 42.392C126.83 42.9432 127.267 43.6364 127.58 44.4716C127.892 45.3011 128.048 46.2727 128.048 47.3864V48.3835H116.994V46.1335H124.631C124.631 45.6108 124.517 45.1477 124.29 44.7443C124.063 44.3409 123.747 44.0256 123.344 43.7983C122.946 43.5653 122.483 43.4489 121.955 43.4489C121.403 43.4489 120.915 43.5767 120.489 43.8324C120.068 44.0824 119.739 44.4205 119.5 44.8466C119.261 45.267 119.139 45.7358 119.134 46.2528V48.392C119.134 49.0398 119.253 49.5994 119.491 50.071C119.736 50.5426 120.08 50.9062 120.523 51.1619C120.966 51.4176 121.491 51.5455 122.099 51.5455C122.503 51.5455 122.872 51.4886 123.207 51.375C123.543 51.2614 123.83 51.0909 124.068 50.8636C124.307 50.6364 124.489 50.358 124.614 50.0284L127.972 50.25C127.801 51.0568 127.452 51.7614 126.923 52.3636C126.401 52.9602 125.724 53.4261 124.895 53.7614C124.071 54.0909 123.119 54.2557 122.04 54.2557ZM136.332 54.2557C134.991 54.2557 133.838 53.9716 132.872 53.4034C131.912 52.8295 131.173 52.0341 130.656 51.017C130.145 50 129.889 48.8295 129.889 47.5057C129.889 46.1648 130.148 44.9886 130.665 43.9773C131.188 42.9602 131.929 42.1676 132.889 41.5994C133.849 41.0256 134.991 40.7386 136.315 40.7386C137.457 40.7386 138.457 40.946 139.315 41.3608C140.173 41.7756 140.852 42.358 141.352 43.108C141.852 43.858 142.128 44.7386 142.179 45.75H138.753C138.656 45.0966 138.401 44.571 137.986 44.1733C137.577 43.7699 137.04 43.5682 136.375 43.5682C135.812 43.5682 135.321 43.7216 134.901 44.0284C134.486 44.3295 134.162 44.7699 133.929 45.3494C133.696 45.929 133.58 46.6307 133.58 47.4545C133.58 48.2898 133.693 49 133.92 49.5852C134.153 50.1705 134.48 50.6165 134.901 50.9233C135.321 51.2301 135.812 51.3835 136.375 51.3835C136.79 51.3835 137.162 51.2983 137.491 51.1278C137.827 50.9574 138.102 50.7102 138.318 50.3864C138.54 50.0568 138.685 49.6619 138.753 49.2017H142.179C142.122 50.2017 141.849 51.0824 141.361 51.8438C140.878 52.5994 140.21 53.1903 139.358 53.6165C138.506 54.0426 137.497 54.2557 136.332 54.2557ZM151.467 40.9091V43.6364H143.583V40.9091H151.467ZM145.373 37.7727H149.004V49.9773C149.004 50.3125 149.055 50.5739 149.157 50.7614C149.259 50.9432 149.401 51.071 149.583 51.1449C149.771 51.2187 149.987 51.2557 150.231 51.2557C150.401 51.2557 150.572 51.2415 150.742 51.2131C150.913 51.179 151.043 51.1534 151.134 51.1364L151.705 53.8381C151.523 53.8949 151.268 53.9602 150.938 54.0341C150.609 54.1136 150.208 54.1619 149.737 54.179C148.862 54.2131 148.094 54.0966 147.435 53.8295C146.782 53.5625 146.273 53.1477 145.91 52.5852C145.546 52.0227 145.367 51.3125 145.373 50.4545V37.7727Z" fill="#EFEFEF"/>
</svg>
